<svg xmlns="http://www.w3.org/2000/svg" width="18.636" height="17.826" viewBox="0 0 18.636 17.826"><defs><style>.a{fill:#c5222d;}</style></defs><g transform="translate(0 -0.333)"><path class="a" d="M12.357,220.215H.608a.608.608,0,1,1,0-1.215H12.357a.608.608,0,1,1,0,1.215Zm0,0" transform="translate(0 -210.362)"/><path class="a" d="M224.611,141.328a.608.608,0,0,1-.43-1.038l2.812-2.812-2.812-2.812a.608.608,0,0,1,.86-.86l3.241,3.241a.608.608,0,0,1,0,.86l-3.241,3.241A.6.6,0,0,1,224.611,141.328Zm0,0" transform="translate(-215.496 -128.233)"/><path class="a" d="M44.81,18.159a8.867,8.867,0,0,1-8.3-5.653.608.608,0,1,1,1.131-.444,7.7,7.7,0,1,0,0-5.633.608.608,0,1,1-1.131-.444,8.913,8.913,0,1,1,8.3,12.174Zm0,0" transform="translate(-35.087)"/></g></svg>